<svg xmlns="http://www.w3.org/2000/svg" width="1440" height="560" preserveAspectRatio="none">
    <g mask="url(&quot;#SvgjsMask1042&quot;)" fill="none">
        <path d="M993 369l242-242" stroke-width="10" stroke="url(#prefix__SvgjsLinearGradient1043)" stroke-linecap="round" class="prefix__TopRight" />
        <path d="M1231 381l277-277" stroke-width="8" stroke="url(#prefix__SvgjsLinearGradient1043)" stroke-linecap="round" class="prefix__TopRight" />
        <path d="M922 87L569 440M266 100l315-315" stroke-width="10" stroke="url(#prefix__SvgjsLinearGradient1043)" stroke-linecap="round"
            class="prefix__TopRight" />
        <path d="M781 170l269-269" stroke-width="8" stroke="url(#prefix__SvgjsLinearGradient1043)" stroke-linecap="round" class="prefix__TopRight" />
        <path d="M1400 418l197-197" stroke-width="6" stroke="url(#prefix__SvgjsLinearGradient1044)" stroke-linecap="round"
            class="prefix__BottomLeft" />
        <path d="M635 241L392 484M1424 532l258-258" stroke-width="8" stroke="url(#prefix__SvgjsLinearGradient1044)" stroke-linecap="round"
            class="prefix__BottomLeft" />
        <path d="M43 56l244-244" stroke-width="10" stroke="url(#prefix__SvgjsLinearGradient1044)" stroke-linecap="round" class="prefix__BottomLeft" />
        <path d="M467 72L617-78" stroke-width="6" stroke="url(#prefix__SvgjsLinearGradient1044)" stroke-linecap="round" class="prefix__BottomLeft" />
        <path d="M783 516l322-322M26 497l-349 349" stroke-width="6" stroke="url(#prefix__SvgjsLinearGradient1043)" stroke-linecap="round"
            class="prefix__TopRight" />
        <path d="M1079 201L908 372" stroke-width="8" stroke="url(#prefix__SvgjsLinearGradient1044)" stroke-linecap="round"
            class="prefix__BottomLeft" />
        <path d="M1162 113L791 484" stroke-width="10" stroke="url(#prefix__SvgjsLinearGradient1044)" stroke-linecap="round"
            class="prefix__BottomLeft" />
        <path d="M346 245L549 42" stroke-width="8" stroke="url(#prefix__SvgjsLinearGradient1044)" stroke-linecap="round" class="prefix__BottomLeft" />
        <path d="M410 125l334-334" stroke-width="10" stroke="url(#prefix__SvgjsLinearGradient1043)" stroke-linecap="round" class="prefix__TopRight" />
        <path d="M1252 356l-182 182" stroke-width="6" stroke="url(#prefix__SvgjsLinearGradient1043)" stroke-linecap="round"
            class="prefix__TopRight" />
        <path d="M1150 10L865 295" stroke-width="8" stroke="url(#prefix__SvgjsLinearGradient1043)" stroke-linecap="round" class="prefix__TopRight" />
        <path d="M1413 56l-364 364M247 384L645-14" stroke-width="8" stroke="url(#prefix__SvgjsLinearGradient1044)" stroke-linecap="round"
            class="prefix__BottomLeft" />
        <path d="M338 233L62 509" stroke-width="6" stroke="url(#prefix__SvgjsLinearGradient1044)" stroke-linecap="round" class="prefix__BottomLeft" />
        <path d="M34 361l-277 277" stroke-width="6" stroke="url(#prefix__SvgjsLinearGradient1043)" stroke-linecap="round" class="prefix__TopRight" />
        <path d="M1401 477l273-273" stroke-width="6" stroke="url(#prefix__SvgjsLinearGradient1044)" stroke-linecap="round"
            class="prefix__BottomLeft" />
        <path d="M432 5L87 350" stroke-width="10" stroke="url(#prefix__SvgjsLinearGradient1043)" stroke-linecap="round" class="prefix__TopRight" />
        <path d="M791 462l404-404" stroke-width="8" stroke="url(#prefix__SvgjsLinearGradient1044)" stroke-linecap="round"
            class="prefix__BottomLeft" />
        <path d="M167 472L-71 710" stroke-width="6" stroke="url(#prefix__SvgjsLinearGradient1043)" stroke-linecap="round" class="prefix__TopRight" />
        <path d="M1047 350l275-275" stroke-width="10" stroke="url(#prefix__SvgjsLinearGradient1043)" stroke-linecap="round"
            class="prefix__TopRight" />
        <path d="M357 171L521 7" stroke-width="8" stroke="url(#prefix__SvgjsLinearGradient1044)" stroke-linecap="round" class="prefix__BottomLeft" />
        <path d="M512 38L133 417" stroke-width="6" stroke="url(#prefix__SvgjsLinearGradient1044)" stroke-linecap="round" class="prefix__BottomLeft" />
        <path d="M924 171l414-414" stroke-width="6" stroke="url(#prefix__SvgjsLinearGradient1043)" stroke-linecap="round" class="prefix__TopRight" />
        <path d="M964 163l371-371" stroke-width="8" stroke="url(#prefix__SvgjsLinearGradient1044)" stroke-linecap="round"
            class="prefix__BottomLeft" />
        <path d="M1078 305l376-376" stroke-width="8" stroke="url(#prefix__SvgjsLinearGradient1043)" stroke-linecap="round" class="prefix__TopRight" />
        <path d="M1192 123l419-419" stroke-width="8" stroke="url(#prefix__SvgjsLinearGradient1044)" stroke-linecap="round"
            class="prefix__BottomLeft" />
        <path d="M535 488l346-346" stroke-width="10" stroke="url(#prefix__SvgjsLinearGradient1043)" stroke-linecap="round" class="prefix__TopRight" />
        <path d="M816 228l338-338" stroke-width="8" stroke="url(#prefix__SvgjsLinearGradient1044)" stroke-linecap="round"
            class="prefix__BottomLeft" />
        <path d="M1343 119L995 467" stroke-width="8" stroke="url(#prefix__SvgjsLinearGradient1043)" stroke-linecap="round" class="prefix__TopRight" />
        <path d="M1066 92l276-276" stroke-width="10" stroke="url(#prefix__SvgjsLinearGradient1044)" stroke-linecap="round"
            class="prefix__BottomLeft" />
        <path d="M1395 243l-201 201" stroke-width="8" stroke="url(#prefix__SvgjsLinearGradient1043)" stroke-linecap="round"
            class="prefix__TopRight" />
        <path d="M799 372L589 582" stroke-width="10" stroke="url(#prefix__SvgjsLinearGradient1043)" stroke-linecap="round" class="prefix__TopRight" />
    </g>
    <defs>
        <linearGradient x1="0%" y1="100%" x2="100%" y2="0%" id="prefix__SvgjsLinearGradient1043">
            <stop stop-color="rgba(203, 203, 203, 0)" offset="0" />
            <stop stop-color="rgba(203, 203, 203, 1)" offset="1" />
        </linearGradient>
        <linearGradient x1="100%" y1="0%" x2="0%" y2="100%" id="prefix__SvgjsLinearGradient1044">
            <stop stop-color="rgba(203, 203, 203, 0)" offset="0" />
            <stop stop-color="rgba(203, 203, 203, 1)" offset="1" />
        </linearGradient>
        <mask id="prefix__SvgjsMask1042">
            <path fill="#fff" d="M0 0h1440v560H0z" />
        </mask>
    </defs>
</svg>
