<svg width="350" height="224" fill="none" xmlns="http://www.w3.org/2000/svg">
    <path fill-rule="evenodd" clip-rule="evenodd"
        d="M73.027 1.014C63.554 2.162 51.594 6.1 43.08 10.877 34.044 15.945 23.76 24.51 18.027 31.74c-6.033 7.608-13 21.867-15.458 31.632-2.234 8.881-2.553 19.95-.672 23.334.685 1.235 16.982 18.064 36.214 37.399 20.197 20.305 36.327 35.726 38.186 36.506 7.386 3.101 16.791.32 21.265-6.287 1.925-2.842 2.484-4.948 2.484-9.364 0-4.743-.49-6.351-2.926-9.598-1.609-2.145-16.044-17.175-32.077-33.4l-29.152-29.5 1.238-4c3.033-9.795 10.773-19.814 19.832-25.669 22.131-14.304 51.549-8.233 66.681 13.761 4.33 6.293 6.94 13.83 8.087 23.345.567 4.71 1.736 10.066 2.597 11.902 2.023 4.315 8.057 8.272 13.559 8.892 5.464.616 11.453-2.237 15.31-7.294 3.535-4.634 4.085-11.035 1.991-23.144-2.967-17.16-9.866-31.23-21.207-43.252-7.726-8.19-19.351-16.425-28.362-20.092-12.903-5.252-29.24-7.513-42.59-5.896zm120.582.53c-4.571 1.983-6.838 4.124-9.136 8.627-1.82 3.565-1.894 7.49-1.888 100.5.003 67.175.341 98 1.103 100.743 1.438 5.18 6.454 10.083 11.785 11.518 5.058 1.362 9.252.614 14.079-2.511 1.94-1.256 15.442-14.241 30.005-28.856l26.477-26.573 28.523 28.39c24.858 24.744 29.079 28.539 32.856 29.546 7.243 1.931 14.307-.766 18.614-7.106 3.116-4.586 3.89-8.879 2.528-14.027-1.019-3.848-6.068-9.268-45.062-48.359-24.153-24.214-43.914-44.278-43.914-44.586 0-.308 19.522-18.639 43.383-40.734 28.071-25.995 43.865-41.318 44.75-43.415 2.042-4.84 1.606-11.808-1.003-16.03-3.22-5.21-8.222-7.973-14.598-8.066-4.153-.06-6.109.49-9.156 2.576-2.132 1.46-26.826 23.988-54.876 50.065l-51 47.412-.5-44.599c-.495-44.13-.524-44.636-2.757-48.228-1.525-2.45-3.858-4.319-7.186-5.75-2.71-1.166-5.969-2.102-7.242-2.08-1.273.021-3.877.716-5.785 1.543zM76.58 63.084c-3.296 1.314-6.829 4.681-8.71 8.3-1.83 3.516-1.99 11.357-.3 14.677.67 1.32 15.175 16.406 32.233 33.525l31.014 31.125-1.256 3.875c-2.5 7.717-6.359 13.937-12.361 19.922-11.033 11.002-25.833 15.973-41.032 13.784-10.613-1.529-19.38-5.937-27.035-13.592-3.463-3.462-7.482-8.638-8.933-11.5-3.256-6.425-5.62-15.254-5.62-20.981 0-4.695-2.075-10.577-4.789-13.578-2.67-2.952-8.775-5.68-12.712-5.68-4.379 0-10.606 3.048-13.349 6.535-3.703 4.708-4.363 8.55-3.223 18.771 1.844 16.537 6.844 29.246 16.696 42.434 7.08 9.477 17.713 18.241 28.876 23.799 12.943 6.444 22.317 8.631 37 8.631 13.921 0 23.566-2.101 35.411-7.713 10.022-4.748 18.633-11.061 25.887-18.978 11.918-13.006 19.494-29.548 21.637-47.239 1.328-10.968 1.869-10.243-36.274-48.521-22.393-22.473-36.098-35.478-38.726-36.75-4.357-2.11-10.38-2.462-14.434-.846zm161.283 73.655l3.689 3.779-12.486 12.456-12.487 12.457v-17.298l8.25-7.57c4.537-4.164 8.496-7.578 8.797-7.586.301-.009 2.207 1.684 4.237 3.762z"
        fill="#000" />
</svg>
